<svg viewBox="0 0 444 378" fill="none" xmlns="http://www.w3.org/2000/svg">
<path d="M311.643 296.144C295.564 314.135 267.866 344.998 256.183 360.334C252.156 365.597 246.971 369.862 241.029 372.797C235.087 375.733 228.549 377.26 221.922 377.26C215.294 377.26 208.756 375.733 202.815 372.797C196.873 369.862 191.687 365.597 187.66 360.334C175.977 344.977 148.279 314.135 132.2 296.144C111.617 273.14 121.027 236.882 150.786 228.661C172.125 222.761 191.65 211.619 207.584 196.248C211.455 192.577 216.587 190.531 221.922 190.531C227.256 190.531 232.388 192.577 236.259 196.248C252.194 211.619 271.719 222.761 293.058 228.661C322.816 236.882 332.226 273.14 311.643 296.144Z" fill="#3C784C" style="fill:#3C784C;fill:color(display-p3 0.2353 0.4706 0.2980);fill-opacity:1;"/>
<path d="M0.527378 94.9709C6.89967 25.2793 70.6226 2.53018 104.481 0.363606C132.434 -1.44188 168.204 2.93376 194.564 25.8528C197.768 28.6334 200.053 32.3218 201.115 36.4297C202.177 40.5376 201.967 44.8712 200.511 48.8567C194.315 65.7045 191.775 83.6779 193.061 101.583C194.346 119.488 199.428 136.914 207.967 152.704C209.997 156.46 210.827 160.748 210.344 164.991C209.862 169.233 208.091 173.225 205.269 176.43C182.18 202.578 148.534 219.549 111.044 218.678C53.0775 217.298 -6.22725 169.123 0.527378 94.9709Z" fill="#BD413D" style="fill:#BD413D;fill:color(display-p3 0.7412 0.2549 0.2392);fill-opacity:1;"/>
<path d="M443.317 94.9709C436.944 25.2793 373.221 2.53018 339.363 0.363606C311.41 -1.44188 275.64 2.93376 249.28 25.8528C246.066 28.6262 243.774 32.3146 242.711 36.4251C241.648 40.5357 241.865 44.8727 243.333 48.8567C249.532 65.6985 252.077 83.6665 250.799 101.567C249.521 119.468 244.449 136.892 235.92 152.683C233.884 156.437 233.05 160.727 233.533 164.97C234.015 169.214 235.79 173.207 238.617 176.409C261.706 202.556 295.352 219.528 332.842 218.657C390.766 217.298 450.156 169.123 443.317 94.9709Z" fill="#27548C" style="fill:#27548C;fill:color(display-p3 0.1529 0.3294 0.5490);fill-opacity:1;"/>
</svg>
